<svg width="222" height="222" viewBox="0 0 222 222" fill="none" xmlns="http://www.w3.org/2000/svg">
<g clip-path="url(#clip0_334_603)">
<mask id="mask0_334_603" style="mask-type:luminance" maskUnits="userSpaceOnUse" x="0" y="0" width="222" height="222">
<path d="M111 222C172.304 222 222 172.304 222 111C222 49.6964 172.304 0 111 0C49.6964 0 0 49.6964 0 111C0 172.304 49.6964 222 111 222Z" fill="white"/>
</mask>
<g mask="url(#mask0_334_603)">
<path d="M111 222C172.304 222 222 172.304 222 111C222 49.6964 172.304 0 111 0C49.6964 0 0 49.6964 0 111C0 172.304 49.6964 222 111 222Z" fill="black"/>
<path d="M184.393 194.274L85.2752 66.5996H66.6001V155.363H81.5402V85.5727L172.666 203.308C176.777 200.557 180.695 197.536 184.393 194.274Z" fill="url(#paint0_linear_334_603)"/>
<path d="M156.633 66.5996H141.833V155.4H156.633V66.5996Z" fill="url(#paint1_linear_334_603)"/>
</g>
</g>
<defs>
<linearGradient id="paint0_linear_334_603" x1="132.131" y1="143.683" x2="171.468" y2="192.438" gradientUnits="userSpaceOnUse">
<stop stop-color="white"/>
<stop offset="1" stop-color="white" stop-opacity="0"/>
</linearGradient>
<linearGradient id="paint1_linear_334_603" x1="149.233" y1="66.5996" x2="148.985" y2="131.811" gradientUnits="userSpaceOnUse">
<stop stop-color="white"/>
<stop offset="1" stop-color="white" stop-opacity="0"/>
</linearGradient>
<clipPath id="clip0_334_603">
<rect width="222" height="222" fill="white"/>
</clipPath>
</defs>
</svg>
